# xmcd CD database file
#
# Track frame offsets:
#	150
#	20416
#	39085
#	60223
#
# Disc length: 1014 seconds
#
# Revision: 0
# Processed by: cddbd v1.5.1PL0 Copyright (c) Steve Scherf et al.
# Submitted via: CdAid (MTCDDB.DLL V2003.12.21)
#
DISCID=1f03f404
DTITLE=James Bowman III - Experience: My Perspective
DYEAR=2005
DGENRE=R&B
TTITLE0=Love Lifted Me
TTITLE1=What a Fellowship
TTITLE2=Onward Christian Soldiers
TTITLE3=The Christmas Song
EXTD=Advance Pre-Release ID3G:  14 YEAR: 2005
EXTT0=
EXTT1=(Leaning on the Everlasting Arms)
EXTT2=
EXTT3=
PLAYORDER=
